<svg width="22" height="22" viewBox="0 0 22 22" fill="none" xmlns="http://www.w3.org/2000/svg">
<path d="M20.4817 15.96L17.3517 8.65C16.2917 6.17 14.3417 6.07 13.0317 8.43L11.1417 11.84C10.1817 13.57 8.39168 13.72 7.15168 12.17L6.93168 11.89C5.64168 10.27 3.82168 10.47 2.89168 12.32L1.17168 15.77C-0.0383164 18.17 1.71168 21 4.39168 21H17.1517C19.7517 21 21.5017 18.35 20.4817 15.96ZM5.77168 7C6.56733 7 7.33039 6.68393 7.893 6.12132C8.45561 5.55871 8.77168 4.79565 8.77168 4C8.77168 3.20435 8.45561 2.44129 7.893 1.87868C7.33039 1.31607 6.56733 1 5.77168 1C4.97603 1 4.21297 1.31607 3.65036 1.87868C3.08775 2.44129 2.77168 3.20435 2.77168 4C2.77168 4.79565 3.08775 5.55871 3.65036 6.12132C4.21297 6.68393 4.97603 7 5.77168 7Z" stroke="#004693" stroke-width="1.5" stroke-linecap="round" stroke-linejoin="round"/>
</svg>
