<svg width="25" height="25" viewBox="0 0 25 25" fill="none" xmlns="http://www.w3.org/2000/svg">
<circle cx="12.5" cy="12.5" r="11" fill="#D9D9D9" stroke="#CB1818" stroke-width="2"/>
<path d="M18.5 19.5C18.5 16.791 15.8108 14.6 12.5 14.6C9.18917 14.6 6.5 16.791 6.5 19.5M12.5 12.5C13.4263 12.5 14.3146 12.1313 14.9695 11.4749C15.6245 10.8185 15.9924 9.92826 15.9924 9C15.9924 8.07174 15.6245 7.1815 14.9695 6.52513C14.3146 5.86875 13.4263 5.5 12.5 5.5C11.5737 5.5 10.6854 5.86875 10.0305 6.52513C9.37552 7.1815 9.00757 8.07174 9.00757 9C9.00757 9.92826 9.37552 10.8185 10.0305 11.4749C10.6854 12.1313 11.5737 12.5 12.5 12.5Z" stroke="white" stroke-width="1.5" stroke-linecap="round" stroke-linejoin="round"/>
</svg>
