<svg width="18" height="18" viewBox="0 0 18 18" fill="none" xmlns="http://www.w3.org/2000/svg">
<g clip-path="url(#clip0_268_6789)">
<path d="M10.8974 7.10238L7.10238 10.8974C6.59913 10.3941 6.31641 9.71158 6.31641 8.99988C6.31641 8.64748 6.38582 8.29853 6.52067 7.97296C6.65553 7.64738 6.85319 7.35156 7.10238 7.10238C7.35156 6.85319 7.64738 6.65553 7.97296 6.52067C8.29853 6.38582 8.64748 6.31641 8.99988 6.31641C9.71158 6.31641 10.3941 6.59913 10.8974 7.10238Z" stroke="#004693" stroke-width="1.5" stroke-linecap="round" stroke-linejoin="round"/>
<path d="M13.3659 4.32785C12.0534 3.33785 10.5534 2.79785 9.00086 2.79785C6.35336 2.79785 3.88586 4.35785 2.16836 7.05785C1.49336 8.11535 1.49336 9.89285 2.16836 10.9504C2.76086 11.8804 3.45086 12.6829 4.20086 13.3279M6.31586 14.6479C7.17086 15.0079 8.07836 15.2029 9.00086 15.2029C11.6484 15.2029 14.1159 13.6429 15.8334 10.9429C16.5084 9.88535 16.5084 8.10785 15.8334 7.05035C15.5859 6.66035 15.3159 6.29285 15.0384 5.94785" stroke="#004693" stroke-width="1.5" stroke-linecap="round" stroke-linejoin="round"/>
<path d="M11.6325 9.525C11.5309 10.0482 11.2753 10.5291 10.8984 10.9059C10.5216 11.2828 10.0407 11.5384 9.5175 11.64M7.1025 10.8975L1.5 16.5M16.5 1.5L10.8975 7.1025" stroke="#004693" stroke-width="1.5" stroke-linecap="round" stroke-linejoin="round"/>
</g>
<defs>
<clipPath id="clip0_268_6789">
<rect width="18" height="18" fill="white"/>
</clipPath>
</defs>
</svg>
