<svg id="Layer_1" data-name="Layer 1" xmlns="http://www.w3.org/2000/svg" xmlns:xlink="http://www.w3.org/1999/xlink" viewBox="0 0 1322.86577 1537"><defs><style>.cls-1{fill:none;}.cls-2{fill:#f19b00;}.cls-3{fill:url(#linear-gradient);}.cls-4{fill:#2a2964;}.cls-5{fill:url(#linear-gradient-2);}.cls-6{clip-path:url(#clip-path);}.cls-7{fill:url(#linear-gradient-3);}.cls-8{clip-path:url(#clip-path-2);}.cls-9{fill:url(#linear-gradient-4);}.cls-10{fill:#b09b6e;}.cls-11{fill:#1a1e36;}.cls-12{fill:#be9556;}</style><linearGradient id="linear-gradient" x1="406.5837" y1="544.01735" x2="672.81997" y2="544.01735" gradientUnits="userSpaceOnUse"><stop offset="0" stop-color="#f19b02"/><stop offset="0.08302" stop-color="#f3a929"/><stop offset="0.17434" stop-color="#f5b54c"/><stop offset="0.26689" stop-color="#f7bf68"/><stop offset="0.35992" stop-color="#f8c67b"/><stop offset="0.45379" stop-color="#f9ca87"/><stop offset="0.54972" stop-color="#f9cb8b"/><stop offset="0.61071" stop-color="#f9c986"/><stop offset="0.68541" stop-color="#f8c477"/><stop offset="0.76727" stop-color="#f6bb5e"/><stop offset="0.85424" stop-color="#f4af3b"/><stop offset="0.94436" stop-color="#f2a00f"/><stop offset="0.96871" stop-color="#f19b02"/><stop offset="1" stop-color="#f19b02"/></linearGradient><linearGradient id="linear-gradient-2" x1="263.5837" y1="307.05293" x2="529.81997" y2="307.05293" gradientTransform="translate(1157.62524 956.03558) rotate(180)" gradientUnits="userSpaceOnUse"><stop offset="0" stop-color="#29285e"/><stop offset="0.18965" stop-color="#185088"/><stop offset="0.41692" stop-color="#077bb5"/><stop offset="0.53184" stop-color="#008bc6"/><stop offset="0.77234" stop-color="#17528a"/><stop offset="0.96871" stop-color="#29285e"/><stop offset="1" stop-color="#29285e"/></linearGradient><clipPath id="clip-path"><path class="cls-1" d="M691.41256,526.02781c-16.48171.86047-29.19614,19.20368-29.19614,19.20368s-30.37329,43.56865-68.98747,50.73384c-38.61347,7.16519-26.60525-10.89178-26.60525-10.89178,27.78311-49.30078,44.5-55.89256,44.5-55.89256s-9.88975-3.15318-27.077-.28717c-17.18791,2.86694-37.908,41.2743-39.79133,45.00089s-8.71121,15.76426-8.71121,27.23027c0,11.46426,7.063,14.04485,19.54225,15.76425,12.47854,1.72013,42.145,0,42.145,0s8.71256,0,31.78632-10.60553c23.07445-10.60461,43.79451-34.6817,43.79451-34.6817s25.4281-29.80911,28.48931-34.68159c3.06053-4.87341,13.42059-10.8926,13.42059-10.8926a90.754,90.754,0,0,0-9.94163-.38224c-3.45338,0-7.875.096-13.368.38224"/></clipPath><linearGradient id="linear-gradient-3" x1="-325.45673" y1="1667.1261" x2="-324.76509" y2="1667.1261" gradientTransform="matrix(259.06384, 0, 0, -259.06384, 84849.61499, 432464.22021)" xlink:href="#linear-gradient-2"/><clipPath id="clip-path-2"><path class="cls-1" d="M655.15271,651.71482s-4.70867-.57341-2.82532-5.30271c0,0,29.7847-38.12112,33.90548-39.12477s23.07449-3.01,28.48931,1.57613c5.4155,4.58624,16.2459,23.50368,16.01145,28.51933-.2359,5.01565-3.23556,12.6119-17.511,14.332a211.484,211.484,0,0,1-21.39992.76448c-17.20662,0-36.67-.76448-36.67-.76448m68.1637-61.48162H681.11127c-4.7681,0-10.77156,0-37.61265,35.68441-26.84181,35.68534-55.62573,40.55783-55.62573,40.55783l150.8069,1.577c10.59527-4.08447,29.31375-10.31837,11.30143-44.28441-17.567-33.12654-26.2311-33.5357-26.64885-33.5357l-.016.00082"/></clipPath><linearGradient id="linear-gradient-4" x1="-325.54644" y1="1667.12276" x2="-324.8548" y2="1667.12276" gradientTransform="matrix(245.23357, 0, 0, -245.23357, 80422.78614, 409463.6026)" xlink:href="#linear-gradient"/></defs><rect class="cls-1" width="1322.86577" height="1537"/><rect class="cls-1" width="1322.86577" height="1537"/><path class="cls-2" d="M584.98855,666.47585s-80.28886-2.866-100.067-80.543c-19.77738-77.67611,122.90555-133.28243,233.80284-153.05952L629.01824,383S502.0507,436.31279,470.26509,463.8293c-31.78632,27.5164-42.55792,44.92925-47.32607,52.23843-4.76746,7.30836-18.89485,36.11465-16.42223,62.12657,2.4719,26.01109,29.19543,85.845,178.47176,88.28155"/><path class="cls-3" d="M535.54421,463.39937C430.6877,489.4155,412.039,539.72167,409.66188,547.91229c-.09958.37474-.19849.75359-.29533,1.13161l-.00207.00843-.00139.00421a105.46511,105.46511,0,0,0-2.37164,12.02421A72.3762,72.3762,0,0,0,422.296,614.09383c8.97057,10.94728,22.67952,22.04112,43.39478,31.19088.04774.02107.101.04379.14872.06393,0,0-24.74338-59.78668,31.77109-113.44728C528.03717,491.45979,601.51,460.66974,672.82,442.74074q-2.12267-.05165-4.58143-.05468c-21.52936,0-62.798,3.37128-132.69433,20.71331"/><path class="cls-4" d="M715.63668,526.52415s80.28887,2.866,100.067,80.543C835.481,684.74322,692.79809,740.34954,581.90081,760.12663L671.607,810s126.96754-53.31279,158.75314-80.8293c31.78633-27.5164,42.55793-44.92925,47.32607-52.23843,4.76747-7.30836,18.89485-36.11465,16.42224-62.12657-2.4719-26.01109-29.19543-85.845-178.47177-88.28155"/><path class="cls-5" d="M765.081,729.60063c104.85651-26.01613,123.50517-76.3223,125.88234-84.51292.09958-.37474.19849-.75359.29533-1.13161l.00207-.00843.00139-.00421a105.46511,105.46511,0,0,0,2.37164-12.02421,72.37625,72.37625,0,0,0-15.30457-53.01308c-8.97057-10.94728-22.67953-22.04112-43.39478-31.19088-.04775-.02107-.101-.04379-.14872-.06393,0,0,24.74338,59.78668-31.77109,113.44728-30.42656,40.44157-103.89934,71.23162-175.20936,89.16062q2.12266.05164,4.58143.05468c21.52936,0,62.798-3.37128,132.69432-20.71331"/><g class="cls-6"><rect class="cls-7" x="535.54417" y="525.64557" width="179.17792" height="92.96378"/></g><g class="cls-8"><rect class="cls-9" x="587.87289" y="590.23238" width="180.12057" height="77.82011"/></g><rect class="cls-10" x="312.69945" y="845.49091" width="710.63082" height="4.04302"/><rect class="cls-10" x="312.69945" y="948.95698" width="710.63082" height="4.04302"/><rect class="cls-10" x="312.69945" y="851.43111" width="710.63082" height="2.02153"/><rect class="cls-10" x="312.69945" y="945.50214" width="710.63082" height="2.02153"/><path class="cls-11" d="M650.7985,925.44917c-8.81514,10.31928-21.81378,14.49664-33.19827,14.37991-9.48856-.09736-18.98013-.00587-28.46913-.00587H556.61829l3.63876-5.78832H604.4729c7.37673,0,14.80221.96122,22.05876-1.38345a34.15689,34.15689,0,0,0,7.69572-3.59674,26.05288,26.05288,0,0,1,2.743-1.95756c9.45821-4.14625,14.43746-16.00734,15.74588-25.36716,1.31269-9.354-3.66656-20.15534-15.30974-28.31354a42.567,42.567,0,0,0-19.64332-7.02337h-223.337l-23.79945,34.50119-27.07478-40.79389H351.086l19.32264,29.26418,19.763-29.26418H611.58881c1.90276.08212,7.53407.11086,10.07822.43927,8.0215,1.0263,15.14938,3.07478,23.46166,9.50822,15.7309,12.18067,15.85917,28.64718,15.85917,28.64718a41.5044,41.5044,0,0,1-10.18936,26.75413"/><polygon class="cls-11" points="618.337 872.369 400.214 872.369 375.541 907.781 380.017 914.518 403.022 879.331 618.337 879.331 618.337 872.369"/><path class="cls-11" d="M596.9399,872.36863c3.83758.00942,7.676,0,11.514,0H615.923c.83591,0,1.68338-.05745,2.51805.01174a29.01169,29.01169,0,0,1,9.87426,3.02614,33.2694,33.2694,0,0,1,14.86419,14.62327c2.38933,4.75673,2.30256,10.17089,1.234,15.95394-5.89513,15.68827-18.609,21.17753-29.86905,21.10712-2.433-.01525-4.86638.0053-7.29935.0053H572.39256c-.97146,0-6.63526-1.02923-7.33053,0l4.14845-6.13842h41.46008c3.43737,0,7.23347.53953,10.59472-.54365a31.41858,31.41858,0,0,0,5.4667-2.3523,21.52522,21.52522,0,0,0,10.63194-12.42522c2.096-6.86448.20353-15.00567-4.12664-19.36128-4.70473-4.73152-11.01463-5.9965-16.678-6.641a87.59427,87.59427,0,0,0-10.59986-.45685c-1.63981.01289-3.27961.051-4.91939.08913a21.50611,21.50611,0,0,1-4.11082.0528c.09792-1.16765.0107-2.41856.0107-3.59323v-3.35748"/><path class="cls-11" d="M611.58894,860.10055h-5.62277s2.16358-.14074,5.62277,0"/><polygon class="cls-11" points="321.065 866.604 330.344 866.604 371.174 926.647 374.886 921.856 334.493 860.101 308.947 860.101 362.441 939.831 366.48 933.984 321.065 866.604"/><path class="cls-12" d="M404.62766,891.15684h16.80116c-2.94779,1.94293-4.42211,2.91349-7.37331,4.85645q-10.04273,18.585-20.08545,37.17016c.98175,1.51421,1.473,2.27076,2.45734,3.78558H379.77591c2.87766-1.64268,4.31562-2.4643,7.19071-4.10637l20.171-37.24232c-1.00526-1.78518-1.50724-2.67832-2.50993-4.4635m17.2993,2.03556c-2.22473,1.44212-3.33732,2.16288-5.56377,3.60554q-9.82143,18.19277-19.64332,36.38551c.9501,2.68537,1.42643,4.02834,2.38252,6.71314h-18.591c-.14838-.38647-.22278-.57883-.37115-.9647h17.37241c-.79574-2.1564-1.19339-3.23431-1.98571-5.39071q10.00809-18.53232,20.0166-37.064c2.46717-1.59983,3.70033-2.39919,6.16538-3.999.08722.28618.13084.42868.21807.71428"/><path class="cls-12" d="M459.894,891.54972a51.51005,51.51005,0,0,0-5.722,5.213q-5.02073,5.35638-6.38088,6.56949c-.11673.0862-.17488.129-.292.21463.0449-.26155.0821-.46447.11117-.607a27.18516,27.18516,0,0,0,.74914-4.463,4.46829,4.46829,0,0,0-.638-2.39214q-1.68362-2.89242-5.79508-2.8924a14.68823,14.68823,0,0,0-7.45283,2.12415,13.7157,13.7157,0,0,0-5.38589,5.33791q-3.22357,5.99946,4.603,8.17695c2.09046.58589,3.13591.87854,5.22723,1.46382,5.34057,1.31484,9.60231,6.4164,5.598,13.60518a29.3864,29.3864,0,0,1-9.64763,9.83663c-3.74053,2.2379-8.84378,4.04008-13.04139,3.98145a32.29635,32.29635,0,0,1-8.44312-1.24973c-1.45-.414-2.17471-.62107-3.62423-1.03567a14.84424,14.84424,0,0,0-3.85341-.607,13.17907,13.17907,0,0,0-5.25119,1.39283c-.00684-.19938-.00983-.29967-.01625-.49966a100.59734,100.59734,0,0,0,13.05294-12.71142c.21849.07094.32753.10731.5456.17825q-2.266,5.60714-.186,8.7124,2.08064,3.10617,8.15578,3.10589a17.86467,17.86467,0,0,0,8.79076-2.21271,14.62046,14.62046,0,0,0,6.002-5.9631c1.5359-2.88006,1.497-5.28279-.10988-7.14185-1.15321-1.33416-4.3507-2.57219-9.55228-3.714q-6.02-1.32129-7.39341-4.39137-1.37255-3.071,1.57053-8.53411A24.98248,24.98248,0,0,1,442.835,890.37151a31.07318,31.07318,0,0,1,8.87541,1.49958,12.05015,12.05015,0,0,0,3.44763.71431,11.47838,11.47838,0,0,0,4.44091-1.2134c.118.071.17659.10617.295.17772M447.75955,914.33c1.92029,2.45313,1.75653,5.85164-.514,10.07a33.19006,33.19006,0,0,1-26.82549,16.28239,23.54072,23.54072,0,0,1-6.55191-.78587c-1.98913-.55714-2.98413-.83569-4.972-1.39283a14.55139,14.55139,0,0,0-4.021-.49966,11.75433,11.75433,0,0,0-4.195.82163c.05131-.414.07739-.62164.1287-1.03568a12.35482,12.35482,0,0,1,4.24978-.85742,17.62718,17.62718,0,0,1,4.55037.64337c1.9173.52779,2.8768.79228,4.795,1.32067a24.57767,24.57767,0,0,0,6.51514.7853,28.58446,28.58446,0,0,0,14.6-4.55209,29.28769,29.28769,0,0,0,10.87951-11.0148c1.94209-3.60554,2.35086-6.83223,1.24684-9.5704.04575-.08562.06841-.12843.11416-.21462m-29.10067-1.28495c.33778.27154.5071.407.8449.67855q.04168,2.106,4.99122,3.49938c1.987.57063,2.98071.85681,4.969,1.428q5.05663,1.46464,6.43859,2.51767a3.12557,3.12557,0,0,1,1.05657,3.19558c-.13041.05749-.19584.0862-.32625.14311a4.77082,4.77082,0,0,0-2.02675-2.71415,27.72314,27.72314,0,0,0-6.05292-2.10654c-4.4841-1.19872-7.38314-2.21972-8.6723-3.08884a2.86217,2.86217,0,0,1-1.222-3.55278m-1.76637,11.569q-2.13387,6.4278,2.18112,9.10528c-.06114.11436-.09194.17185-.15307.2856q-5.61081-1.92736-3.08676-9.212c.42332-.07155.635-.10734,1.05871-.17886m30.25175-24.45991a6.11732,6.11732,0,0,0-6.14186-4.17736,10.21985,10.21985,0,0,0-5.31276,1.57113,10.37524,10.37524,0,0,0-3.921,3.99906q-1.4181,2.64345.6773,5.42765c.07568.07152.1133.10731.189.17826-.13255.11436-.19883.17185-.33138.2856q-3.56286-2.10508-1.414-6.1056a12.35975,12.35975,0,0,1,10.53915-6.28443,7.173,7.173,0,0,1,4.64188,1.30367,4.00394,4.00394,0,0,1,1.39821,3.66009c-.13.05688-.195.08562-.32453.14193m14.14969-7.105c-.24158.21409-.3626.3214-.60461.53545q-2.76627,2.464-4.99379,4.71334-5.28048,5.2482-5.92634,5.85579c-.12443.09969-.18643.14951-.31086.24924-.2651-.14254-.39765-.21348-.66233-.356.12529-.129.18771-.193.31343-.322q2.28714-2.3567,6.25729-6.14136c1.9699-1.8849,2.9542-2.8279,4.9228-4.71277.1317-.11436.19755-.17185.32925-.2856.2698.18531.40492.27855.67516.46386"/><path class="cls-12" d="M467.08688,891.15684h16.80287c-2.9264,1.94293-4.39046,2.91349-7.31986,4.85645q-9.83749,18.585-19.675,37.17016c.99884,1.51421,1.49869,2.27076,2.49968,3.78558H442.741c2.86012-1.64268,4.28912-2.4643,7.14624-4.10637l19.75919-37.24232c-1.02533-1.78518-1.53758-2.67832-2.55952-4.4635m17.32368,2.03556c-2.20892,1.44212-3.3138,2.16288-5.524,3.60554q-9.62068,18.19277-19.24139,36.38551c.98,2.68537,1.47132,4.02834,2.45733,6.71314H443.50934c-.15265-.38647-.22919-.57883-.38184-.9647h17.37455c-.82011-2.1564-1.22931-3.23431-2.046-5.39071q9.80349-18.53232,19.60655-37.064c2.45007-1.59983,3.67468-2.39919,6.12174-3.999.09066.28618.136.42868.22622.71428"/><path class="cls-12" d="M509.40887,890.69316c3.47628.29441,8.93954.79582,10.34459,6.5695,1.45253,5.966-1.50381,12.85568-3.983,17.56726a50.27269,50.27269,0,0,1-13.749,16.56857,28.51337,28.51337,0,0,1-16.99956,6.17715q-6.82364.00441-9.86056-4.35618c-4.02872-6.07571-.28692-13.92658,2.21745-19.03226a47.09017,47.09017,0,0,1,14.36348-17.13859c5.37949-3.82782,11.81038-6.851,17.6666-6.35545m-1.609,3.07009c-9.9136.12847-17.97573,10.85649-23.1461,21.20978-2.72375,5.45464-8.81472,20.26616,1.5825,19.60347a18.02545,18.02545,0,0,0,11.145-5.19542c4.278-3.99552,7.821-9.51348,10.82221-15.19388,2.45093-4.63828,5.59923-10.50227,5.47055-15.78213-.068-2.78391-2.31412-4.68756-5.8742-4.64182m11.96644-1.24973q3.78412,2.464,3.62679,8.42619c-.10434,3.97562-1.5607,8.58222-4.22072,13.78351A55.43769,55.43769,0,0,1,503.6775,933.291a32.368,32.368,0,0,1-19.04172,7.06915c-4.0253.03812-7.12658-1.36821-9.21234-4.10638.03763-.07094.056-.10613.09364-.17768,1.81468,2.16578,4.98567,3.29237,9.41076,3.249,6.28125-.06275,12.72112-2.59681,18.24681-6.74832a50.75229,50.75229,0,0,0,14.721-17.24594c2.66216-5.20244,4.2113-9.7727,4.5042-13.67612q.4387-5.8561-2.83832-8.7482c.08166-.15656.12271-.23574.20481-.39292m-7.17575,6.60583c-.16676-.1425-.24973-.21405-.41691-.35712a8.24658,8.24658,0,0,0-5.25589-1.89252c-8.172.10441-14.87231,10.01317-19.034,18.46105-2.043,4.14686-7.02824,12.50912-3.57931,17.8887-.20354.14307-.3053.21462-.50841.35712a7.73487,7.73487,0,0,1-1.59106-6.65977c.43359-2.74873,1.90063-6.47156,4.34985-11.15791,4.79665-9.17745,11.84457-19.78645,20.77814-19.81752,3.13764-.01056,4.89715,1.05969,5.25761,3.178"/><path class="cls-12" d="M575.02766,891.157a28.78027,28.78027,0,0,0-7.18943,3.85653,26.768,26.768,0,0,0-5.97253,8.17634c-.47676.92837-.71493,1.39226-1.19168,2.32063q-8.07821,15.72961-16.15593,31.45808h-6.03882q-.00705-16.3542.06242-32.70781-5.01813,9.69408-10.03586,19.38881c-.34679.64333-.52039.96473-.86715,1.60806-.89367,2.05611-1.34007,3.08416-2.23329,5.14148q-1.134,3.5706.51652,5.28455c.06243.09969.09409.14955.15651.24981q-4.08174-1.64238.52337-10.53334c.70936-1.3424,1.06424-2.01386,1.77361-3.35687q5.056-9.76533,10.11284-19.53249c.009-1.499.01371-2.24846.024-3.74864q-5.32731,10.28351-10.65545,20.567-5.06883,9.78384-5.35594,12.81934-.2861,3.03492,3.74607,4.42656c.55672,1.32894.8355,1.99278,1.39436,3.32169H508.2626c-.02866-.38648-.04275-.57884-.071-.9647h17.90947c-.33779-.78526-.50628-1.17821-.84364-1.96347H508.60466a19.87773,19.87773,0,0,0,7.97536-4.21311q2.799-2.64255,6.13158-9.06952l14.81416-28.56568c-1.06511-1.58519-1.59661-2.37808-2.65916-3.96327H552.803c-2.71389,1.357-4.07105,2.03556-6.78752,3.39145q-.12057,16.85386-.1629,33.70834c.88127-1.71423,1.32167-2.571,2.20291-4.28524q.01668-14.42507.112-28.85128c2.68781-1.35708,4.03128-2.03559,6.71612-3.39206.12954.2715.19411.407.32366.67909-2.37738,1.19933-3.5665,1.79924-5.94558,2.99857q-.1302,13.3193-.21507,26.6374,4.287-8.33676,8.57352-16.67527c.38912-.75712.58365-1.1354.97277-1.89252q3.19469-6.21319,3.25693-8.30127.06349-2.08925-2.91445-4.01721Zm-.112,2.64195c-.47464.42871-.71236.64337-1.187,1.07147a10.11561,10.11561,0,0,0-4.9241,2.374,21.63694,21.63694,0,0,0-3.97141,5.83818q-9.44306,18.40739-18.88649,36.81419H538.2595c.01239-.38648.01881-.57884.03121-.9647h7.18517q9.10759-17.7459,18.21562-35.4929a23.627,23.627,0,0,1,4.89543-7.01578,12.5857,12.5857,0,0,1,6.32871-2.62442"/><path class="cls-12" d="M685.42329,878.22077q8.63679.00086,17.2732.00233c-2.93668,1.94764-4.40457,2.92115-7.33781,4.86525q-9.39491,18.6273-18.79113,37.25463c1.05785,1.53122,1.58677,2.29772,2.64206,3.8313q-8.42385-.07125-16.84861-.14307c2.8366-1.62507,4.25577-2.43793,7.09579-4.0665q9.39044-18.63788,18.78131-37.27633c-1.12455-1.78925-1.68769-2.68243-2.81481-4.46761m17.88212,2.04436c-2.21706,1.44682-3.32491,2.16933-5.54025,3.61377q-9.20637,18.24288-18.41229,36.48577c1.0728,2.71118,1.6077,4.06826,2.675,6.7853q-9.39556-.08445-18.792-.16948c-.16721-.38884-.25056-.58352-.41777-.97236q8.78307.07743,17.567.15542c-.88853-2.18163-1.33365-3.27125-2.22518-5.44877q9.37443-18.57978,18.74838-37.159c2.45476-1.60162,3.68282-2.4027,6.13972-4.00726.103.28679.15476.4299.25743.71664"/><path class="cls-12" d="M758.79233,878.23122c-3.02176,2.0104-4.53158,3.015-7.54906,5.02243q-9.445,18.56309-18.88907,37.12441c.91974,1.70482,1.379,2.55873,2.29656,4.26648q-8.31742-.07038-16.63355-.14074c2.86742-1.67142,4.30155-2.50769,7.17236-4.18144q6.17391-12.14843,12.34828-24.29572-13.72875,15.68655-27.4562,31.37658c-1.38793-.01231-2.08192-.01876-3.46944-.03168.08127-.39.12229-.58466.20351-.97468,1.25844.01113,1.887.017,3.14494.02756q14.56767-16.73424,29.13659-33.46669c1.12283-2.20977,1.68466-3.31463,2.80755-5.52326q-16.14873,18.47868-32.2952,36.962c-1.01255-.0082-1.51837-.01288-2.53087-.02169q2.40581-14.53412,4.77141-29.08233-4.811,9.505-9.62283,19.00938a24.3389,24.3389,0,0,0-2.22171,5.39422,5.7077,5.7077,0,0,0,.62254,3.50525c.47164,1.65026.70725,2.47543,1.17717,4.12688q-9.45072-.08447-18.90147-.17006c-.06457-.39-.09664-.5847-.16163-.97411q8.87347.07914,17.7474.15717c-.13383-.79581-.20095-1.19345-.33567-1.98927q-8.06343-.06862-16.12683-.13663c.38354-.15485.5751-.23284.95863-.38708a26.38759,26.38759,0,0,0,7.53793-4.38786,25.17394,25.17394,0,0,0,4.87064-7.0791q7.50606-14.8429,15.013-29.68583c-1.02194-1.78224-1.53372-2.67249-2.55952-4.45118q9.42121.00086,18.84158.00232c-3.06921,1.88548-4.60292,2.82673-7.66916,4.70808q-2.477,15.08392-4.987,30.15792c1.15749-1.24976,1.736-1.87491,2.89393-3.12524q2.13318-13.36853,4.24079-26.74239c2.61557-1.3934,3.92354-2.09071,6.54079-3.48587.18174.24455.27283.36711.45494.61165-2.46416,1.26616-3.696,1.89893-6.1581,3.16276q-2.02669,12.56456-4.07532,25.122,11.21451-12.83983,22.42908-25.67972c-.81629-1.89249-1.2255-2.83846-2.04471-4.72744q9.23838.00177,18.47772.00293m-45.56151,8.5048q-6.52348,12.8935-13.04692,25.78649-2.99849,5.92643-2.985,8.16109.01284,2.23615,3.08246,3.27244c-.02093-.217-.03121-.32491-.05214-.54247q-2.30637-2.47282.02009-7.06972c.53835-1.06385.80773-1.59575,1.34561-2.659q5.37351-10.61694,10.74655-21.23265c.3566-2.28777.53449-3.43075.88936-5.71619m46.16484-5.68219c-2.244,1.17177-3.36558,1.757-5.60785,2.92644q-9.27816,18.22881-18.55721,36.45585c1.06082,2.88421,1.5893,4.32748,2.64418,7.21752q-9.59573-.08709-19.19181-.173c-.0047-.39177-.00642-.58763-.01112-.9788q8.74781.07743,17.496.15482c-.85214-2.29071-1.27931-3.43487-2.13579-5.72089q9.56112-18.78563,19.12213-37.5713c2.31492-1.17,3.47325-1.75525,5.78995-2.92641.18086.24633.271.36947.45155.61577"/><path class="cls-12" d="M802.62751,878.23691c-.375.2768-.56272.41518-.93775.692a69.75218,69.75218,0,0,0-11.25619,10.45065q.06475-.83748.08852-1.2392.23535-4.37292-1.40761-5.64815-1.64259-1.27556-7.58068-1.27908-2.73228-.00173-6.64941.17711-4.26261,8.34819-8.52438,16.69524c.93.00351,1.39483.00526,2.32438.00881q3.77452-7.38937,7.54774-14.77752,2.89647-.2516,5.41029-.24924,4.625.00527,6.30774.98875,1.68237.98439,1.93865,3.8284a6.06692,6.06692,0,0,1-.44894-.54777,8.51838,8.51838,0,0,0-2.84262-2.77217,16.89417,16.89417,0,0,0-4.94758-.4422q-1.166-.00173-4.22455.1396c-.31344.01406-.46992.02169-.78377.03575q-3.52439,6.89939-7.04876,13.7999c2.67367.00938,4.01035.01407,6.684.02463,3.19066-2.5675,4.78686-3.85241,7.98133-6.42345q-4.01245,7.8415-8.02539,15.683c-.62765-2.44083-.942-3.66006-1.57307-6.09737-3.96457-.01643-5.94685-.02524-9.91148-.04167q-5.19767,10.18063-10.3959,20.3612c.92616.007,1.38924.01053,2.31539.01815q4.76612-9.33079,9.53218-18.66279c3.15047.01411,4.72568.02112,7.87616.0358.18388.38.27622.56945.4601.94948-3.16456-.01468-4.74667-.0223-7.91123-.037q-4.52622,8.8602-9.05245,17.72212a42.42327,42.42327,0,0,0,11.03217-.97293,17.41469,17.41469,0,0,0,7.01071-4.11282c1.44655-1.3201,2.16956-1.98043,3.61695-3.30175q.22134-.21723.84494-.79875a20.36689,20.36689,0,0,0-.94839,6.42932,15.71744,15.71744,0,0,0,1.73514,5.65051l-40.54034-.33954c3.0547-1.66205,4.5833-2.49362,7.64138-4.15917q4.12215-8.08254,8.24472-16.16624a20.50823,20.50823,0,0,0-6.47492,1.8573c-.04875-.30493-.07271-.45741-.121-.763a19.958,19.958,0,0,1,7.07653-2.03677c.34762-.68206.52164-1.02279.86885-1.70425a7.80257,7.80257,0,0,0-.83378-.07563,15.78965,15.78965,0,0,0-8.13568,2.68594q4.61853-5.78215,10.57766-5.76308,3.947-7.73949,7.89364-15.47716c-1.32639-1.74236-1.99084-2.61209-3.32147-4.35034q19.44465.00263,38.88814.00529m-17.7534,46.54054c-1.42645,1.30721-2.13924,1.96171-3.56439,3.26774l-39.46834-.3554c-.0321-.39349-.04791-.59054-.07954-.98406q19.791.175,39.583.35011c.96337-.91487,1.44483-1.37229,2.40815-2.28777a16.71429,16.71429,0,0,1-2.03746-10.4131c.37414.17829.56147.26684.93514.44571a17.47271,17.47271,0,0,0,1.9447,9.388c.1116.23516.16719.35361.27878.58878m1.27806-31.87151q-4.11768,8.04645-8.23662,16.09175c-.26594-.19176-.39893-.28736-.66487-.47854q4.11761-8.04387,8.23485-16.08885c.26682.19061.39982.28561.66664.47564m16.91619-12.11563c-.16938.1314-.254.19648-.42289.32784a96.76883,96.76883,0,0,0-11.07022,10.0155c-.09067-.3073-.13556-.46035-.22622-.76708a83.14658,83.14658,0,0,1,11.60173-10.34273c.047.30669.07052.45978.1176.76647"/><path class="cls-12" d="M852.68812,878.24382a29.68355,29.68355,0,0,0-7.40536,3.968,27.63876,27.63876,0,0,0-6.16028,8.41155c-.49257.95532-.73883,1.43271-1.23187,2.38745q-8.34756,16.18445-16.6955,32.36708c-2.44453-.02051-3.667-.03049-6.11195-.051q.11736-16.83014.15993-33.65966-5.10606,9.93339-10.21291,19.868c-.35274.658-.52979.98761-.883,1.64619-.909,2.10833-1.36356,3.16276-2.273,5.27166q-1.15835,3.66479.50713,5.44233c.06327.1038.09448.15538.15732.25919q-4.12536-1.72506.555-10.833c.72176-1.37583,1.08269-2.06316,1.804-3.43838q5.14263-10.00554,10.2852-20.01048c.00386-1.53884.00553-2.30771.00809-3.84479l-10.823,21.06431q-5.14905,10.02046-5.44275,13.13838-.2951,3.11847,3.78068,4.58667c.558,1.37289.8368,2.05964,1.39311,3.43372l-19.58944-.17711c-.02954-.39646-.04363-.59408-.07271-.99054q9.05566.08005,18.11084.1595c-.33734-.81221-.50625-1.21805-.84406-2.02972q-8.42515-.07212-16.85114-.14307a19.81985,19.81985,0,0,0,8.07153-4.26119q2.83492-2.69182,6.21582-9.27305,7.50927-14.61948,15.01814-29.24011c-1.10446-1.6245-1.65737-2.43614-2.764-4.05709q9.22054.00086,18.44181.00233c-2.78657,1.39165-4.1792,2.0866-6.96363,3.47592q-.06544,17.33859-.2403,34.676c.90862-1.76288,1.36314-2.64431,2.27176-4.406q.12957-14.84114.18086-29.68229c2.75535-1.38932,4.13389-2.08427,6.89138-3.47653.13383.278.20054.417.33442.69613-2.44155,1.231-3.66189,1.84559-6.10167,3.07481q-.11164,13.70281-.28264,27.40508,4.41975-8.57429,8.84121-17.14858c.40107-.77821.602-1.16761,1.0031-1.94586q3.29349-6.38914,3.36338-8.53761.068-2.14821-2.99264-4.13043,8.27373.00092,16.54716.00236m-.13,2.72231c-.49048.44163-.7359.6627-1.22592,1.10372a10.423,10.423,0,0,0-5.06819,2.442,22.34682,22.34682,0,0,0-4.10226,6.00824q-9.77909,18.94929-19.55739,37.89739c-3.10767-.02817-4.66237-.04166-7.77052-.0698.01624-.39821.0248-.59759.04108-.99523,2.90631.02581,4.35922.03812,7.26595.06393q9.42441-18.26574,18.84888-36.53094,2.67324-5.18221,5.05535-7.21984a12.95857,12.95857,0,0,1,6.513-2.69948"/><path class="cls-12" d="M888.5641,878.65664a52.133,52.133,0,0,0-5.82712,5.40009q-5.10152,5.54732-6.47836,6.80055c-.11885.08913-.1783.13369-.2972.22168q.06482-.40731.1082-.62927a28.29684,28.29684,0,0,0,.72218-4.62421,4.69749,4.69749,0,0,0-.68241-2.47837q-1.76254-2.99793-5.99091-2.99736a14.82845,14.82845,0,0,0-7.61962,2.19041,13.74923,13.74923,0,0,0-5.43377,5.50565q-3.20111,6.19032,4.83,8.469c2.1431.61344,3.21421.92016,5.35637,1.53475,5.533,1.40515,9.81742,6.71844,5.78912,14.15649a29.84235,29.84235,0,0,1-9.76523,10.1668c-3.76492,2.29066-8.94893,4.12746-13.18675,4.02952A32.25871,32.25871,0,0,1,841.536,925.033c-1.47087-.44216-2.20677-.66269-3.67848-1.10429a14.85237,14.85237,0,0,0-3.909-.66034,12.91761,12.91761,0,0,0-5.299,1.3981c-.0094-.207-.01368-.3108-.02307-.51784a100.48835,100.48835,0,0,0,13.06832-13.05742c.22277.07564.334.11319.55713.18882q-2.22752,5.78656-.08424,9.0197,2.14281,3.23546,8.2896,3.28768a17.562,17.562,0,0,0,8.89424-2.23032,14.77627,14.77627,0,0,0,6.0632-6.15485c1.54739-2.98329,1.497-5.481-.15225-7.41925-1.1827-1.391-4.44947-2.69182-9.76565-3.89934q-6.15205-1.397-7.60333-4.57553-1.44889-3.17829,1.4572-8.80855a24.25163,24.25163,0,0,1,9.01141-9.43727,24.77281,24.77281,0,0,1,12.64627-3.62723,31.96375,31.96375,0,0,1,9.147,1.55176,12.4224,12.4224,0,0,0,3.552.7413,11.62362,11.62362,0,0,0,4.55209-1.25739c.12182.07449.18258.11143.30482.18592m-12.25845,23.6166c1.97158,2.55694,1.81124,6.08974-.49,10.47058a31.05681,31.05681,0,0,1-11.57819,11.94024,29.72965,29.72965,0,0,1-15.556,4.78489,23.3256,23.3256,0,0,1-6.62718-.87617c-2.01522-.59641-3.023-.89375-5.03953-1.48841a14.46747,14.46747,0,0,0-4.07231-.55363,11.51,11.51,0,0,0-4.23311.81343c.04661-.42814.06968-.64219.11671-1.07086a12.12627,12.12627,0,0,1,4.28912-.85037,17.60524,17.60524,0,0,1,4.61153.7049c1.94549.56476,2.91743.84686,4.86208,1.41277a24.38782,24.38782,0,0,0,6.59251.87442,28.07522,28.07522,0,0,0,14.756-4.60835,29.80914,29.80914,0,0,0,11.01719-11.38607c1.96694-3.74217,2.3761-7.09553,1.23573-9.9457.04619-.088.06926-.13255.11546-.22167m-29.70056-1.45734c.34887.28149.52378.4228.87312.70433q.07438,2.179,5.13658,3.64423c2.03187.60113,3.04738.902,5.078,1.50426q5.1644,1.54471,6.57456,2.64725a3.31081,3.31081,0,0,1,1.09423,3.3258c-.13258.05806-.19839.08738-.331.14605a5.01624,5.01624,0,0,0-2.07765-2.83027,28.03647,28.03647,0,0,0-6.17735-2.21972c-4.57646-1.26616-7.54472-2.3382-8.87028-3.24312a3.02822,3.02822,0,0,1-1.30024-3.67881m-1.636,11.95781q-2.08965,6.64252,2.30511,9.45367c-.06112.11848-.09191.17711-.15267.295q-5.69859-2.04528-3.22611-9.5704c.42973-.07094.64436-.10613,1.07367-.17829M875.56337,887.562a6.36592,6.36592,0,0,0-6.35179-4.33273,10.30446,10.30446,0,0,0-5.42865,1.61744,10.42354,10.42354,0,0,0-3.95649,4.12631q-1.41162,2.72877.77266,5.6159c.07824.07391.11759.11085.19542.18473l-.33479.295q-3.67062-2.19217-1.53721-6.31847a11.73586,11.73586,0,0,1,4.46017-4.67872,11.85961,11.85961,0,0,1,6.25262-1.80218,7.40412,7.40412,0,0,1,4.783,1.35235,4.21035,4.21035,0,0,1,1.47646,3.79321c-.13258.05924-.19886.08855-.33139.14718m14.45286-7.35006c-.24672.22228-.36991.33314-.61658.55538q-2.82084,2.55461-5.08574,4.884-5.37218,5.43645-6.02342,6.06279c-.12658.1032-.18942.15542-.316.25862-.27236-.14894-.40875-.22343-.6811-.3718.127-.13312.19067-.19941.31766-.332q2.32053-2.43931,6.35821-6.35834c2.005-1.95291,3.00767-2.92992,5.01344-4.884.1343-.11905.20184-.17829.33609-.29674.27883.19294.41861.28912.69743.482"/><path class="cls-12" d="M893.92261,878.24994q8.63811.00172,17.27539.0029c-3.00595,2.021-4.5085,3.03083-7.511,5.04824q-10.05617,19.32755-20.1128,38.6533c1.0044,1.58812,1.50595,2.38337,2.50821,3.97443l-16.8512-.1431c2.89518-1.68664,4.34387-2.53114,7.24245-4.22131q10.053-19.339,20.10555-38.67854c-1.06124-1.85612-1.59275-2.7833-2.6566-4.63592m17.812,2.12118c-2.26837,1.50136-3.40232,2.25083-5.66938,3.7504q-9.85229,18.92642-19.70536,37.85458c.97747,2.81262,1.46492,4.2207,2.43686,7.038q-9.39748-.08359-18.7946-.16949c-.15351-.4029-.23-.60521-.38354-1.00811q8.78437.0765,17.5691.15481c-.81195-2.26253-1.21861-3.39324-2.03359-5.65166q10.03307-19.27738,20.06619-38.55422c2.51165-1.662,3.76789-2.49362,6.2821-4.158.09323.29731.13942.44628.23222.74359"/><path class="cls-12" d="M935.27109,877.77109c3.5648.30672,9.21065.85094,10.55755,6.88262,1.40845,6.30616-1.73644,13.48323-4.35243,18.42762A54.44964,54.44964,0,0,1,927.1803,920.4164a28.74552,28.74552,0,0,1-17.32623,6.35133c-4.57391.00293-7.90994-1.59107-9.92474-4.64827-4.012-6.43459-.1984-14.51948,2.40178-19.882a48.90759,48.90759,0,0,1,14.7603-17.84292c5.52438-3.98087,12.15369-7.14245,18.17968-6.62343m-1.67658,3.20907c-10.24965.12962-18.16428,11.50333-23.84948,22.11055-3.203,5.976-8.90363,20.78869,1.38538,20.53945,3.61867-.08737,8.41576-2.42614,11.381-5.36841a62.13958,62.13958,0,0,0,11.258-15.88886c2.35214-4.66642,6.07212-10.79489,5.80875-16.52984-.14067-3.05895-2.32819-4.90981-5.98366-4.86289m12.30554-1.30195q3.86112,2.581,3.60583,8.83965c-.17021,4.17206-1.74542,9.00914-4.55981,14.46672a59.20013,59.20013,0,0,1-16.126,19.43516c-5.84293,4.53916-12.7113,7.26208-19.40215,7.26795-4.06677.00351-7.18-1.50193-9.25809-4.38786.03888-.07449.05814-.112.097-.18652,1.81087,2.28483,5.00149,3.49647,9.47361,3.49,6.40743-.00942,12.97812-2.66254,18.59531-6.93836a54.12184,54.12184,0,0,0,15.30678-18.0482c2.81434-5.457,4.48277-10.25418,4.84454-14.35174q.54132-6.14465-2.79257-9.17569c.0868-.16423.12955-.24691.21552-.41114m-7.44085,6.9108c-.16938-.15012-.254-.22518-.42336-.37473a8.34709,8.34709,0,0,0-5.3726-1.98749c-8.46577.02874-15.40037,10.6172-19.628,19.25157-2.1456,4.382-7.26082,12.99-3.84269,18.71323-.20779.14836-.31171.22228-.5195.37065q-2.23653-2.676-1.52991-6.99.70551-4.31219,4.53366-11.65169c5.04168-9.64428,12.191-20.53126,21.4204-20.66495,3.19234-.04575,5.016,1.11424,5.362,3.33339"/><path class="cls-12" d="M1000.67136,878.26512a30.37613,30.37613,0,0,0-7.502,4.07058,29.30482,29.30482,0,0,0-6.36677,8.63029c-.51606.97937-.77391,1.46965-1.29,2.44963q-8.74521,16.604-17.49,33.2075l-6.11106-.05162q.53881-17.26465.98645-34.53286-5.35167,10.19287-10.70246,20.38579c-.369.67558-.55416,1.01338-.92318,1.68839-.96123,2.164-1.4418,3.24544-2.403,5.41008q-1.24878,3.75883.37372,5.583c.06028.10617.09066.15954.15095.26628q-4.0837-1.76909.82093-11.1151c.75558-1.411,1.13311-2.11653,1.88865-3.52755q5.38893-10.26681,10.77776-20.533c.04234-1.57814.06285-2.36691.10346-3.94447q-5.67174,10.80776-11.34258,21.61382-5.39591,10.2826-5.766,13.48087-.372,3.20028,3.66914,4.70571c.52379,1.40751.78586,2.11184,1.30839,3.52167q-9.79387-.08794-19.5886-.17654l-.04828-1.01688,18.11042.16007c-.31771-.83333-.47634-1.24972-.79489-2.08248q-8.42453-.07125-16.85036-.14311a20.27143,20.27143,0,0,0,8.17806-4.37379q2.90156-2.76307,6.44454-9.51584,7.86975-15.00033,15.73907-30.00308c-1.06427-1.6667-1.597-2.49949-2.66386-4.16268q9.22047,0,18.44134.00179c-2.82117,1.428-4.23092,2.14173-7.04917,3.56681q-.50539,17.79073-1.09251,35.57677c.95226-1.808,1.42818-2.71236,2.38-4.52041q.48363-15.22555.91035-30.4529c2.78912-1.42627,4.18478-2.14,6.97652-3.568.127.2856.19067.42871.31682.71489-2.47146,1.26264-3.70677,1.89366-6.17693,3.15456q-.44831,14.06082-.95565,28.117,4.63144-8.79684,9.262-17.59368c.42033-.79933.63068-1.19811,1.051-1.99687q3.45063-6.55542,3.57247-8.75932.1219-2.20448-2.89007-4.23774,8.27256.00092,16.54549.00236m-.19667,2.79268c-.5016.45277-.75214.67974-1.25327,1.13247a10.60978,10.60978,0,0,0-5.12723,2.50475,23.75455,23.75455,0,0,0-4.24976,6.16484Q979.601,910.3,969.35874,929.74128c-3.10851-.02814-4.66237-.04281-7.77052-.07037.0261-.40874.03894-.61227.06546-1.02161,2.9063.0258,4.35922.0393,7.2651.06511q9.87273-18.73989,19.74467-37.47925,2.80086-5.31676,5.23235-7.40809a13.12732,13.12732,0,0,1,6.57889-2.76927"/><path class="cls-12" d="M1036.53247,878.68778a54.68328,54.68328,0,0,0-5.958,5.53966q-5.23619,5.6898-6.6434,6.97647c-.12146.09089-.18175.13663-.30274.22755q.075-.41782.12355-.6457a30.04005,30.04005,0,0,0,.83508-4.74383,4.83055,4.83055,0,0,0-.62212-2.5423q-1.68942-3.07449-5.917-3.07421a14.82714,14.82714,0,0,0-7.6726,2.24675,14.43572,14.43572,0,0,0-5.568,5.64872q-3.3519,6.35043,4.6226,8.68716c2.12812.6287,3.19155.94362,5.31879,1.57406,5.75018,1.506,9.52277,7.13129,5.444,14.51948a31.41526,31.41526,0,0,1-10.01279,10.42953c-3.78585,2.33587-9.01225,4.23305-13.286,4.13626a31.05064,31.05064,0,0,1-8.52-1.40278c-1.46065-.45273-2.191-.67913-3.652-1.13128a14.33423,14.33423,0,0,0-3.89316-.67734,12.8943,12.8943,0,0,0-5.33372,1.43564c-.00386-.2129-.006-.31846-.01028-.53133a105.59326,105.59326,0,0,0,13.38818-13.397c.221.07739.3318.11612.55243.19351q-2.36861,5.93615-.304,9.25311,2.06335,3.31819,8.21011,3.37037a17.513,17.513,0,0,0,8.94894-2.28952,15.52083,15.52083,0,0,0,6.21368-6.315c1.62015-3.05952,1.63-5.62176.02824-7.60986-1.14851-1.42626-4.3836-2.76043-9.6707-3.99845q-6.11816-1.43212-7.49174-4.69283-1.37068-3.2601,1.67313-9.03609a25.528,25.528,0,0,1,9.24186-9.68239,24.80045,24.80045,0,0,1,12.73437-3.72109,30.778,30.778,0,0,1,9.10757,1.59167,11.97147,11.97147,0,0,0,3.53359.76,11.5896,11.5896,0,0,0,4.582-1.289c.12016.07624.18.11379.30013.19m-12.83313,24.22589c1.90958,2.622,1.66332,6.24226-.74489,10.73862a32.64557,32.64557,0,0,1-11.8685,12.24989,29.77746,29.77746,0,0,1-15.674,4.91157,22.56774,22.56774,0,0,1-6.60666-.8973c-2.00066-.61108-3.00119-.91662-5.00357-1.52652a14.01474,14.01474,0,0,0-4.0591-.56652,11.42063,11.42063,0,0,0-4.25363.83509c.05731-.43924.0855-.65859.14281-1.09843a12.03953,12.03953,0,0,1,4.31052-.87324,17.05041,17.05041,0,0,1,4.59483.72194c1.9314.57944,2.89733.86855,4.82831,1.44856a23.55362,23.55362,0,0,0,6.57158.89494c5.13615.03457,10.23514-1.83561,14.86933-4.7292a31.34979,31.34979,0,0,0,11.29425-11.681c2.05838-3.84132,2.54928-7.27737,1.47818-10.20085.04828-.09149.07224-.13662.12057-.22754m-29.66423-1.49195c.342.28915.51308.4334.85559.72251q.02114,2.23443,5.04763,3.73751c2.01694.61635,3.02562.92543,5.04126,1.54239q5.1272,1.58427,6.51046,2.71468a3.38219,3.38219,0,0,1,1.01291,3.41143c-.13341.05924-.20053.08973-.334.14894a4.97987,4.97987,0,0,0-2.0088-2.90236,26.97853,26.97853,0,0,0-6.12385-2.276c-4.54571-1.29784-7.48751-2.39687-8.7912-3.32524a3.08835,3.08835,0,0,1-1.21005-3.77384m-1.92842,12.26751q-2.25258,6.81315,2.07462,9.69646c-.0641.1208-.0962.1818-.15988.30318q-5.64935-2.098-2.9931-9.81727c.43139-.0727.64691-.10907,1.07836-.18237m31.20953-25.86564a6.19106,6.19106,0,0,0-6.24578-4.44477,10.30583,10.30583,0,0,0-5.46754,1.65968,10.95288,10.95288,0,0,0-4.05737,4.23362,5.16288,5.16288,0,0,0,.63584,5.75958c.07569.07624.11415.11436.19026.1906-.13639.12081-.20482.18123-.34163.302q-3.61676-2.24759-1.3824-6.48094a12.32577,12.32577,0,0,1,4.57391-4.80014,11.853,11.853,0,0,1,6.2962-1.8485,7.12886,7.12886,0,0,1,4.74964,1.387,4.28,4.28,0,0,1,1.38324,3.89114c-.13341.06039-.20054.09031-.33437.15073m14.63075-7.54009c-.25232.22815-.37842.34191-.63032.57006q-2.8823,2.6188-5.20458,5.0095-5.50363,5.57717-6.17,6.21936c-.12913.10616-.1937.15953-.32241.26509-.269-.15248-.40322-.22873-.67218-.38121.13-.13663.19542-.20525.32586-.3413q2.38011-2.50182,6.513-6.522c2.052-2.00334,3.07818-3.005,5.13192-5.01007.13722-.12142.20565-.18241.34293-.30379.27408.19762.4113.29616.68585.49436"/><rect class="cls-1" x="240.02443" y="301" width="898.8169" height="1003"/></svg>