<svg width="18" height="22" viewBox="0 0 18 22" fill="none" xmlns="http://www.w3.org/2000/svg">
<path d="M2.4496 12.8599L3.09213 13.2468L3.09381 13.244L2.4496 12.8599ZM1.2996 14.7699L0.657074 14.3831L0.656961 14.3833L1.2996 14.7699ZM2.3796 17.6999L2.13915 18.4104L2.14193 18.4113L2.3796 17.6999ZM15.6496 17.6999L15.4142 16.9878L15.4119 16.9886L15.6496 17.6999ZM16.7296 14.7699L17.3727 14.3841L17.3721 14.3831L16.7296 14.7699ZM15.5796 12.8599L14.9298 13.2348L14.9371 13.2468L15.5796 12.8599ZM10.8696 2.19994L10.6642 2.92126C10.9383 2.99935 11.2331 2.91523 11.4248 2.7042C11.6165 2.49317 11.6719 2.19172 11.5679 1.92629L10.8696 2.19994ZM7.1696 2.19994L6.47131 1.92629C6.36729 2.19172 6.42275 2.49317 6.61442 2.7042C6.8061 2.91523 7.10085 2.99935 7.37503 2.92126L7.1696 2.19994ZM6.8996 20.1799L6.36887 20.7099L6.36927 20.7103L6.8996 20.1799ZM9.0196 1.15994C5.29539 1.15994 2.2696 4.18573 2.2696 7.90994H3.7696C3.7696 5.01416 6.12381 2.65994 9.0196 2.65994V1.15994ZM2.2696 7.90994V10.7999H3.7696V7.90994H2.2696ZM2.2696 10.7999C2.2696 11.0146 2.22103 11.3286 2.12818 11.6631C2.03539 11.9973 1.9151 12.2919 1.80539 12.4759L3.09381 13.244C3.2941 12.908 3.45881 12.4776 3.57352 12.0643C3.68817 11.6513 3.7696 11.1953 3.7696 10.7999H2.2696ZM1.80707 12.4731L0.657074 14.3831L1.94213 15.1568L3.09212 13.2468L1.80707 12.4731ZM0.656961 14.3833C0.195924 15.1495 0.099722 16.0091 0.382518 16.7729C0.664987 17.5357 1.29674 18.1252 2.13915 18.4104L2.62005 16.9895C2.16246 16.8347 1.89921 16.5492 1.78918 16.252C1.67948 15.9557 1.69328 15.5704 1.94224 15.1566L0.656961 14.3833ZM2.14193 18.4113C6.60619 19.9028 11.423 19.9028 15.8873 18.4113L15.4119 16.9886C11.2562 18.3771 6.77301 18.3771 2.61727 16.9886L2.14193 18.4113ZM15.885 18.412C17.5541 17.8603 18.2785 15.8937 17.3727 14.3841L16.0865 15.1558C16.5007 15.8462 16.1651 16.7396 15.4142 16.9878L15.885 18.412ZM17.3721 14.3831L16.2221 12.4731L14.9371 13.2468L16.0871 15.1568L17.3721 14.3831ZM16.2292 12.4851C16.1213 12.2981 16.0023 12.0005 15.9104 11.6653C15.8182 11.3293 15.7696 11.0148 15.7696 10.7999H14.2696C14.2696 11.1951 14.351 11.6506 14.4638 12.0621C14.5769 12.4743 14.7379 12.9018 14.93 13.2347L16.2292 12.4851ZM15.7696 10.7999V7.90994H14.2696V10.7999H15.7696ZM15.7696 7.90994C15.7696 4.19573 12.7338 1.15994 9.0196 1.15994V2.65994C11.9054 2.65994 14.2696 5.02416 14.2696 7.90994H15.7696ZM11.075 1.47863C9.73146 1.09597 8.30774 1.09597 6.96417 1.47863L7.37503 2.92126C8.45004 2.61509 9.58916 2.61509 10.6642 2.92126L11.075 1.47863ZM7.86789 2.4736C8.04844 2.01288 8.49674 1.68994 9.0196 1.68994V0.189941C7.86246 0.189941 6.87075 0.907006 6.47131 1.92629L7.86789 2.4736ZM9.0196 1.68994C9.54246 1.68994 9.99075 2.01288 10.1713 2.4736L11.5679 1.92629C11.1684 0.907006 10.1767 0.189941 9.0196 0.189941V1.68994ZM11.2696 18.0599C11.2696 19.2957 10.2554 20.3099 9.0196 20.3099V21.8099C11.0838 21.8099 12.7696 20.1242 12.7696 18.0599H11.2696ZM9.0196 20.3099C8.40708 20.3099 7.83545 20.0551 7.42993 19.6496L6.36927 20.7103C7.04374 21.3847 7.99212 21.8099 9.0196 21.8099V20.3099ZM7.43033 19.65C7.00848 19.2275 6.77094 18.6553 6.7696 18.0582L5.2696 18.0616C5.27184 19.0549 5.66703 20.007 6.36887 20.7099L7.43033 19.65Z" fill="#004693"/>
</svg>
