<svg width="37" height="37" viewBox="0 0 37 37" fill="none" xmlns="http://www.w3.org/2000/svg">
<path d="M18.987 36.0248C28.935 36.0248 36.9995 27.9604 36.9995 18.0124C36.9995 8.06443 28.935 0 18.987 0C9.03905 0 0.974609 8.06443 0.974609 18.0124C0.974609 27.9604 9.03905 36.0248 18.987 36.0248Z" fill="#0CBC8B"/>
<path d="M15.8974 27.8465C15.5221 27.8465 15.1609 27.703 14.8879 27.4454L8.04581 20.9894C7.76984 20.7199 7.61077 20.3527 7.60285 19.9671C7.59493 19.5814 7.73881 19.2081 8.00349 18.9274C8.26817 18.6468 8.63247 18.4814 9.01795 18.4668C9.40342 18.4521 9.77921 18.5895 10.0644 18.8493L15.8162 24.2755L27.8276 11.0398C28.0908 10.7544 28.456 10.5846 28.8438 10.5674C29.2315 10.5501 29.6104 10.6868 29.8978 10.9477C30.1853 11.2085 30.358 11.5724 30.3783 11.96C30.3986 12.3477 30.265 12.7276 30.0064 13.0171L16.987 27.3642C16.8556 27.509 16.6966 27.6262 16.5193 27.7088C16.3421 27.7915 16.1501 27.838 15.9547 27.8456C15.9356 27.846 15.9165 27.8465 15.8974 27.8465Z" fill="white"/>
</svg>
