<svg width="29" height="32" viewBox="0 0 29 32" fill="none" xmlns="http://www.w3.org/2000/svg">
<path d="M28 6.97C23.005 6.475 17.98 6.22 12.97 6.22C10 6.22 7.03 6.37 4.06 6.67L1 6.97M9.25 5.455L9.58 3.49C9.82 2.065 10 1 12.535 1H16.465C19 1 19.195 2.125 19.42 3.505L19.75 5.455M24.775 11.71L23.8 26.815C23.635 29.17 23.5 31 19.315 31H9.685C5.5 31 5.365 29.17 5.2 26.815L4.225 11.71M11.995 22.75H16.99M10.75 16.75H18.25" stroke="#A7A7A7" stroke-width="1.5" stroke-linecap="round" stroke-linejoin="round"/>
</svg>
